# xmcd
#
# Track frame offsets: 
#        150
#        18640
#        37425
#        52996
#        85764
#        104472
#        122983
#        137942
#        157433
#        176619
#
# Disc length: 2736 seconds
#
# Revision: 1
# Processed by: cddbd v1.5.2PL0 Copyright (c) Steve Scherf et al.
# Submitted via: ExactAudioCopyFreeDBPlugin 1.0
#
DISCID=950aae0a
DTITLE=Plena Libre - Estamos Gozando
DYEAR=2004
DGENRE=Salsa
TTITLE0=Olvidalo
TTITLE1=Canario Blanco
TTITLE2=Que Buenas Son Las Mujeres
TTITLE3=Tributo A "Rafael Cortijo Y Su Combo"
TTITLE4=Lluvia con Nieve
TTITLE5=Juan Jose
TTITLE6=Charlatan
TTITLE7=Kijis Konar
TTITLE8=Lo Que A Ti Te Gusta
TTITLE9=Medley De La Calle San Sebastian
EXTD=YEAR: 2004
EXTT0=
EXTT1=
EXTT2=
EXTT3=
EXTT4=
EXTT5=
EXTT6=
EXTT7=
EXTT8=
EXTT9=
PLAYORDER=
